# xmcd CD database file
#
# Track frame offsets:
#	150
#	19040
#	35645
#	45915
#	59937
#	74635
#	85725
#	99687
#	117625
#	131577
#	145050
#	157195
#	168747
#	179702
#	195980
#	209117
#	225540
#	241497
#	257407
#	273172
#	284427
#	300180
#	316310
#
# Disc length: 4381 seconds
#
# Revision: 0
# Processed by: cddbd v1.5.2PL0 Copyright (c) Steve Scherf et al.
# Submitted via: CDex 1.70beta2
#
DISCID=5b111b17
DTITLE=ChartBreakers - CGC-549
DYEAR=1900
DGENRE=Country
TTITLE0=Don Williams - I Believe In You
TTITLE1=Don Williams - Love Is On A Roll
TTITLE2=Eddy Arnold - What's He Doing In My World
TTITLE3=Jimmy Dean - Big Bad John
TTITLE4=John Denver - Take Me Home, Country Roads
TTITLE5=Leroy Van Dyke - Walk On By
TTITLE6=Mickey Gilley - Don't The Girls All Get Prettier At Closing Time
TTITLE7=Vern Gosdin - Chiseled In Stone
TTITLE8=Waylon Jennings - Wrong
TTITLE9=George Jones - Same Ole Me
TTITLE10=Jim Reeves - Welcome To My World
TTITLE11=Johnny Rodriguez - Pass Me By
TTITLE12=Statler Brothers - Flowers On The Wall
TTITLE13=Mel Tillis - Send Me Down To Tucson
TTITLE14=Conway Twitty - I Can't Stop Loving You
TTITLE15=Shawn Camp - Fallin' Never Felt So Good
TTITLE16=Daron Norwood - If It Wasn't For Her I Wouldn't Have You
TTITLE17=Lorrie Morgan - Heart Over Mind
TTITLE18=Martina McBride - Independence Day
TTITLE19=Faron Young - Hello Walls
TTITLE20=Dwight Yoakam - Turn It On, Turn It Up, Turn Me Loose
TTITLE21=Dwight Yoakam - I Got You
TTITLE22=Earl Thomas Conley - Finally Friday
EXTD=YEAR: 1900
EXTT0=
EXTT1=
EXTT2=
EXTT3=
EXTT4=
EXTT5=
EXTT6=
EXTT7=
EXTT8=
EXTT9=
EXTT10=
EXTT11=
EXTT12=
EXTT13=
EXTT14=
EXTT15=
EXTT16=
EXTT17=
EXTT18=
EXTT19=
EXTT20=
EXTT21=
EXTT22=
PLAYORDER=
